<?xml version="1.0" encoding="UTF-8"?>
<svg width="1024" height="1024" viewBox="0 0 1024 1024" xmlns="http://www.w3.org/2000/svg">
  <!-- Background -->
  <rect x="0" y="0" width="1024" height="1024" rx="200" fill="#2196F3"/>
  
  <!-- Chat bubbles -->
  <g transform="translate(512, 512) scale(0.8)">
    <!-- AI bubble -->
    <path d="M-200,-100 L-200,-250 Q-200,-300 -150,-300 L150,-300 Q200,-300 200,-250 L200,-100 Q200,-50 150,-50 L-100,-50 L-150,0 L-150,-50 L-150,-50 Q-200,-50 -200,-100 Z" 
          fill="#E3F2FD"/>
    <!-- User bubble -->
    <path d="M-150,100 L-150,250 Q-150,300 -100,300 L200,300 Q250,300 250,250 L250,100 Q250,50 200,50 L-50,50 L-100,0 L-100,50 L-100,50 Q-150,50 -150,100 Z" 
          fill="#FFFFFF"/>
    
    <!-- AI text -->
    <text x="-120" y="-150" font-family="Arial" font-size="100" font-weight="bold" fill="#1976D2">AI</text>
    <!-- User dots -->
    <circle cx="-50" cy="150" r="20" fill="#1976D2"/>
    <circle cx="25" cy="150" r="20" fill="#1976D2"/>
    <circle cx="100" cy="150" r="20" fill="#1976D2"/>
  </g>
</svg> 